<svg xmlns="http://www.w3.org/2000/svg" version="1.1" xmlns:xlink="http://www.w3.org/1999/xlink" xmlns:svgjs="http://svgjs.dev/svgjs" width="1000" height="1000" viewBox="0 0 1000 1000"><rect width="1000" height="1000" fill="#000000"></rect><g transform="matrix(0.7,0,0,0.7,149.57577999875934,282.1265587044535)"><svg viewBox="0 0 396 247" data-background-color="#010536" preserveAspectRatio="xMidYMid meet" height="623" width="1000" xmlns="http://www.w3.org/2000/svg" xmlns:xlink="http://www.w3.org/1999/xlink"><g id="tight-bounds" transform="matrix(1,0,0,1,0.23998731498755888,-0.09999999999999432)"><svg viewBox="0 0 395.52 247.2" height="247.2" width="395.52"><g><svg></svg></g><g><svg viewBox="0 0 395.52 247.2" height="247.2" width="395.52"><g><g><path xmlns="http://www.w3.org/2000/svg" d="M278.35 0c1.777 0 3.109 0.444 3.998 1.333 0.888 0.888 1.222 1.777 0.999 2.665l-0.333 11.993c0 1.777-0.444 3.709-1.333 5.797-0.888 2.132-1.999 4.198-3.331 6.197-4.932 7.398-9.775 15.104-14.529 23.117l-28.681 0c3.938-6.549 8.013-13.145 12.227-19.786 0.888-1.333 1.222-2.443 0.999-3.331-0.222-0.888-1.333-1.333-3.332-1.333h-128.93c-2.665 0-3.998-1.333-3.998-3.998l2.332-19.322c0.222-2.221 1.888-3.332 4.998-3.332zM196.061 207.688c-3.776 13.015-6.33 24.076-7.663 33.182-0.444 4.22-2.11 6.33-4.997 6.33h-26.319c-3.554 0-4.886-1.888-3.998-5.664 3.109-12.438 7.285-26.497 12.527-42.177 0.359-1.081 0.725-2.168 1.096-3.261l32.886 0c-1.258 3.959-2.435 7.822-3.532 11.59z" fill="#ffffff" fill-rule="nonzero" stroke="none" stroke-width="1" stroke-linecap="butt" stroke-linejoin="miter" stroke-miterlimit="10" stroke-dasharray="" stroke-dashoffset="0" font-family="none" font-weight="none" font-size="none" text-anchor="none" style="mix-blend-mode: normal" data-fill-palette-color="tertiary"></path></g></g><g transform="matrix(1,0,0,1,0,74.35388235294117)"><svg viewBox="0 0 395.52 98.49223529411765" height="98.49223529411765" width="395.52"><g><svg viewBox="0 0 395.52 98.49223529411765" height="98.49223529411765" width="395.52"><g><svg viewBox="0 0 395.52 98.49223529411765" height="98.49223529411765" width="395.52"><g id="textblocktransform"><svg viewBox="0 0 395.52 98.49223529411765" height="98.49223529411765" width="395.52" id="textblock"><g><svg viewBox="0 0 395.52 98.49223529411765" height="98.49223529411765" width="395.52"><g transform="matrix(1,0,0,1,0,0)"><svg width="395.52" viewBox="2.049999952316284 -37.599998474121094 152.989990234375 38.099998474121094" height="98.49223529411765" data-palette-color="#fbfbf8"><path d="M3.15-37.1L27-37.1Q27.4-37.1 27.6-36.9 27.8-36.7 27.75-36.5L27.75-36.5 27.7-34.7Q27.7-34.3 27.5-33.83 27.3-33.35 27-32.9L27-32.9Q25-29.9 23.13-26.45 21.25-23 19.65-19.35 18.05-15.7 16.78-12.28 15.5-8.85 14.65-5.93 13.8-3 13.5-0.95L13.5-0.95Q13.4 0 12.75 0L12.75 0 8.8 0Q8 0 8.2-0.85L8.2-0.85Q8.9-3.65 10.08-7.18 11.25-10.7 12.98-14.78 14.7-18.85 17.05-23.3 19.4-27.75 22.35-32.4L22.35-32.4Q22.55-32.7 22.5-32.9 22.45-33.1 22-33.1L22-33.1 2.65-33.1Q2.05-33.1 2.05-33.7L2.05-33.7 2.4-36.6Q2.45-37.1 3.15-37.1L3.15-37.1ZM46.2-8.15L46.2-8.15Q46.2-3.85 44.32-1.68 42.45 0.5 38.2 0.5L38.2 0.5Q36.25 0.5 34.75 0.08 33.25-0.35 32.6-0.55L32.6-0.55Q32.3-0.7 32.12-0.9 31.95-1.1 32-1.5L32-1.5 32.45-4.2Q32.55-4.8 33.1-4.65L33.1-4.65Q33.85-4.35 34.72-4 35.6-3.65 37.2-3.65L37.2-3.65Q39.45-3.65 40.42-4.85 41.4-6.05 41.4-9.25L41.4-9.25 41.4-36.45Q41.4-37.1 42-37.1L42-37.1 45.65-37.1Q46.2-37.1 46.2-36.45L46.2-36.45 46.2-8.15ZM55.7-36.4L55.7-36.4Q55.7-37.1 56.3-37.1L56.3-37.1 78.75-37.1Q79.25-37.1 79.25-36.55L79.25-36.55 79.25-34Q79.25-33.4 78.59-33.4L78.59-33.4 61.15-33.4Q60.5-33.4 60.5-32.8L60.5-32.8 60.5-21.1Q60.5-20.55 61.05-20.55L61.05-20.55 74-20.55Q74.55-20.55 74.55-20L74.55-20 74.55-17.35Q74.55-17.15 74.45-17.03 74.34-16.9 74-16.9L74-16.9 61.05-16.9Q60.5-16.9 60.5-16.35L60.5-16.35 60.5-4.2Q60.5-3.7 61-3.7L61-3.7 79.34-3.7Q79.9-3.7 79.9-3.2L79.9-3.2 79.9-0.55Q79.9-0.3 79.77-0.15 79.65 0 79.34 0L79.34 0 56.4 0Q55.7 0 55.7-0.7L55.7-0.7 55.7-36.4ZM111.74-37.1L114.69-37.1Q115.24-37.1 115.24-36.5L115.24-36.5 115.24-0.6Q115.24-0.3 115.07-0.15 114.89 0 114.59 0L114.59 0 112.14 0Q111.84 0 111.59-0.05 111.34-0.1 111.09-0.4L111.09-0.4 91.79-28.45Q91.54-28.8 91.39-28.75 91.24-28.7 91.24-28.4L91.24-28.4 91.24-0.65Q91.24 0 90.54 0L90.54 0 87.74 0Q87.09 0 87.09-0.65L87.09-0.65 87.09-36.4Q87.09-37.1 87.74-37.1L87.74-37.1 90.59-37.1Q90.99-37.1 91.19-37.02 91.39-36.95 91.64-36.6L91.64-36.6 110.39-9.15Q110.69-8.8 110.92-8.9 111.14-9 111.14-9.3L111.14-9.3 111.14-36.5Q111.14-37.1 111.74-37.1L111.74-37.1ZM139.19 0.5L139.19 0.5Q134.29 0.5 130.72-1.7 127.14-3.9 125.24-8.13 123.34-12.35 123.34-18.4L123.34-18.4Q123.34-24.5 125.29-28.8 127.24-33.1 130.79-35.35 134.34-37.6 139.24-37.6L139.24-37.6Q144.14-37.6 147.67-35.35 151.19-33.1 153.12-28.85 155.04-24.6 155.04-18.45L155.04-18.45Q155.04-12.4 153.14-8.18 151.24-3.95 147.67-1.73 144.09 0.5 139.19 0.5L139.19 0.5ZM139.29-3.15L139.29-3.15Q144.69-3.15 147.37-6.88 150.04-10.6 150.04-18.4L150.04-18.4Q150.04-26.35 147.31-30.15 144.59-33.95 139.24-33.95L139.24-33.95Q133.84-33.95 131.09-30.13 128.34-26.3 128.34-18.4L128.34-18.4Q128.34-10.65 131.09-6.9 133.84-3.15 139.29-3.15L139.29-3.15Z" opacity="1" transform="matrix(1,0,0,1,0,0)" fill="#ffffff" class="wordmark-text-0" data-fill-palette-color="primary" id="text-0"></path></svg></g></svg></g></svg></g></svg></g><g></g></svg></g></svg></g></svg></g><defs></defs></svg><rect width="395.52" height="247.2" fill="none" stroke="none" visibility="hidden"></rect></g></svg></g></svg>